<?xml version="1.0" encoding="utf-8"?>
<!-- Generator: Adobe Illustrator 21.0.2, SVG Export Plug-In . SVG Version: 6.00 Build 0)  -->
<svg version="1.1" id="Layer_1" xmlns="http://www.w3.org/2000/svg" xmlns:xlink="http://www.w3.org/1999/xlink" x="0px" y="0px"
	 viewBox="0 0 36 36" style="enable-background:new 0 0 36 36;" xml:space="preserve">
<style type="text/css">
	.st0{fill:#515151;}
	.st1{fill:#111111;}
	.st2{fill:#FFFFFF;}
</style>
<g transform="matrix( 1, 0, 0, 1, 0,0.4) ">
	<g transform="matrix( 1, 0, 0, 1, 0,0) ">
		<g>
			<g id="pDxMpCreateInst_0_Layer0_0_MEMBER_0_FILL">
				<path class="st0" d="M23.3,35.2c2.8-0.8,5.2-2.3,7.4-4.5c1.7-1.6,2.9-3.5,3.8-5.5H17.4L23.3,35.2 M0.4,13.9
					C0.1,15.2,0,16.6,0,18c0,4.1,1.2,7.7,3.6,10.8l8.5-14.9H0.4 M24.8,14.9l5.6-9.9C26.9,1.6,22.8,0,18,0c-0.6,0-1.2,0-1.7,0.1
					L24.8,14.9z"/>
				<path class="st1" d="M18,36c0.7,0,1.4,0,2-0.1l-8.4-14.4l-5.9,9.6C9.1,34.4,13.2,36,18,36 M1.6,10.6h17.1l-5.8-9.9
					C10.1,1.5,7.5,3,5.3,5.3C3.7,6.9,2.5,8.6,1.6,10.6 M32.7,7.6L24.2,22h11.3c0.3-1.3,0.5-2.6,0.5-4C36,14,34.9,10.6,32.7,7.6z"/>
			</g>
		</g>
	</g>
	<g transform="matrix( 1.18511962890625, 0, 0, 1.1733856201171875, -119.4,-850.1) ">
		<g>
			<g id="pDxMpCreateInst_0_Layer0_0_MEMBER_1_FILL">
				<path class="st2" d="M118.8,742.8v12.4h12.4v-12.4H118.8z"/>
			</g>
		</g>
	</g>
	<g transform="matrix( 1, 0, 0, 1, 0,0) ">
		<g>
			<g id="pDxMpCreateInst_0_Layer0_0_MEMBER_2_FILL">
				<path d="M30.9,23.6h-2.1l-0.6,1.5l-0.7,0.1L26,24.5L24.6,26l0.8,1.5l-0.3,0.7l-1.6,0.5l0,1.9l1.6,0.6l0.2,0.8l-0.6,1.3l1.4,1.5
					l1.5-0.8l0.8,0.4l0.5,1.6h2l0.5-1.5l0.9-0.4l1.5,0.7l1.3-1.5L34.3,32l0.4-0.9l1.3-0.5v-1.9l-1.3-0.4l-0.5-0.9l0.8-1.4l-1.4-1.4
					L32,25.3l-0.8-0.1L30.9,23.6 M31.5,28c0.5,0.5,0.8,1.1,0.8,1.8s-0.3,1.3-0.8,1.8c-0.4,0.4-1,0.6-1.6,0.6c-0.8,0-1.4-0.2-1.9-0.6
					c-0.4-0.5-0.6-1.1-0.6-1.8c0-0.7,0.2-1.3,0.6-1.8c0.5-0.4,1.1-0.6,1.9-0.6C30.6,27.4,31.1,27.6,31.5,28z"/>
			</g>
		</g>
	</g>
</g>
</svg>
