<?xml version="1.0" encoding="utf-8"?>
<!-- Generator: Adobe Illustrator 19.2.1, SVG Export Plug-In . SVG Version: 6.00 Build 0)  -->
<svg version="1.1" id="Layer_1" xmlns="http://www.w3.org/2000/svg" xmlns:xlink="http://www.w3.org/1999/xlink" x="0px" y="0px"
	 viewBox="0 0 16 16" style="enable-background:new 0 0 16 16;" xml:space="preserve">
<style type="text/css">
	.st0{fill:#333333;}
	.st1{fill:#FFFFFF;}
</style>
<g transform="matrix( 1, 0, 0, 1, 0,0) ">
	<g>
		<g id="desn_0_Layer0_0_MEMBER_0_MEMBER_0_MEMBER_0_FILL">
			<path d="M3.9,7.1l-1.9,3.2c1.1,1.1,2.5,1.6,4,1.6c0.2,0,0.4,0,0.7,0L3.9,7.1 M1.7,1.7C1.3,2.3,0.9,2.8,0.6,3.5h5.6L4.3,0.2
				C3.3,0.5,2.5,1,1.7,1.7 M11.9,5.9c0-1.3-0.4-2.5-1.1-3.5L8,7.3h3.7C11.8,6.9,11.9,6.4,11.9,5.9z"/>
			<path class="st0" d="M4,4.6H0.2C0.1,5,0,5.5,0,5.9c0,1.3,0.4,2.5,1.2,3.6L4,4.6 M5.9,0C5.8,0,5.6,0,5.4,0l2.8,4.9l1.9-3.3
				C8.9,0.6,7.5,0,5.9,0 M10.2,10.1c0.6-0.5,1-1.1,1.3-1.8H5.8l2,3.3C8.6,11.4,9.4,10.8,10.2,10.1z"/>
		</g>
	</g>
</g>
<polygon class="st1" points="9.7,3.5 12.7,8.9 15.8,14.3 9.3,14.4 2.8,14.5 6.2,9 "/>
<g>
	<path d="M10.7,7.4l0.9,1.5l-1.1,0.7l0.9,0.2l1.9,0.4l0.4-1.8l0.3-0.9l-1.2,0.7L11.4,6H9.9L8.2,8.9l1.1,0.7L10.7,7.4z"/>
	<path d="M16,13.3l-1.8-2.9l-1.1,0.7l1.3,2.2h-1.7V12l-2,2l2,2v-1.3h2.5L16,13.3z"/>
	<path d="M6.9,13.3L6.9,13.3l0.9-1.5L9,12.5L8.4,9.7l-1.9,0.5l-0.9,0.2l1.1,0.7l-1.4,2.3l0.9,1.3H10v-1.3H6.9z"/>
</g>
</svg>
