<?xml version="1.0" encoding="utf-8"?>
<!-- Generator: Adobe Illustrator 19.2.1, SVG Export Plug-In . SVG Version: 6.00 Build 0)  -->
<svg version="1.1" id="Layer_1" xmlns="http://www.w3.org/2000/svg" xmlns:xlink="http://www.w3.org/1999/xlink" x="0px" y="0px"
	 viewBox="0 0 20 20" style="enable-background:new 0 0 20 20;" xml:space="preserve">
<style type="text/css">
	.st0{fill:#FFFFFF;}
	.st1{fill:#D3D3D3;}
</style>
<g transform="matrix( 1, 0, 0, 1, 0,0) ">
	<g>
		<g id="desn_0_Layer0_0_MEMBER_0_MEMBER_0_MEMBER_0_FILL">
			<path class="st0" d="M6.5,11.9l-3.3,5.4c1.9,1.8,4.1,2.7,6.8,2.7c0.4,0,0.8,0,1.1-0.1L6.5,11.9 M2.9,2.9c-0.8,0.9-1.5,1.8-2,2.9
				h9.5L7.3,0.4C5.6,0.8,4.3,1.7,2.9,2.9 M20,10c0-2.2-0.6-4.1-1.8-5.8l-4.7,8.1h6.3C19.9,11.6,20,10.8,20,10z"/>
			<path class="st1" d="M6.8,7.7H0.3C0.1,8.4,0,9.3,0,10c0,2.3,0.7,4.3,2.1,6L6.8,7.7 M10,0C9.7,0,9.4,0,9.1,0.1l4.7,8.2l3.2-5.5
				C15,0.9,12.7,0,10,0 M17.1,17.1c0.9-0.9,1.6-1.9,2.1-3H9.7l3.3,5.6C14.5,19.1,15.9,18.3,17.1,17.1z"/>
		</g>
	</g>
</g>
</svg>
