<?xml version="1.0" encoding="utf-8"?>
<!-- Generator: Adobe Illustrator 19.0.0, SVG Export Plug-In . SVG Version: 6.00 Build 0)  -->
<svg version="1.1" id="Layer_1" xmlns="http://www.w3.org/2000/svg" xmlns:xlink="http://www.w3.org/1999/xlink" x="0px" y="0px"
	 viewBox="0 0 32 32" style="enable-background:new 0 0 32 32;" xml:space="preserve">
<g id="Mail">
	<g id="XMLID_51_">
		<path id="XMLID_56_" d="M29,4.4H3c-1.6,0-2.9,1.3-2.9,2.9v17.4c0,1.6,1.3,2.9,2.9,2.9H29c1.6,0,2.9-1.3,2.9-2.9V7.3
			C31.9,5.7,30.6,4.4,29,4.4z M3,5.9H29c0.2,0,0.3,0,0.5,0.1L17,18.5c-0.3,0.3-0.6,0.4-1,0.4c-0.4,0-0.7-0.1-1-0.4L2.5,6
			C2.6,5.9,2.8,5.9,3,5.9z M1.5,24.7V7.3c0-0.1,0-0.2,0-0.3l8.9,8.9l-8.9,8.9C1.5,24.9,1.5,24.8,1.5,24.7z M29,26.1H3
			c-0.2,0-0.3,0-0.5-0.1l9-9l2.5,2.5c0.6,0.6,1.3,0.8,2,0.8c0.7,0,1.5-0.3,2-0.8l2.5-2.5l9,9C29.4,26.1,29.2,26.1,29,26.1z
			 M30.5,24.7c0,0.1,0,0.2,0,0.3L21.5,16l8.9-8.9c0,0.1,0,0.2,0,0.3V24.7z"/>
	</g>
</g>
</svg>
