
<svg xmlns="http://www.w3.org/2000/svg" version="1.1" xmlns:xlink="http://www.w3.org/1999/xlink" preserveAspectRatio="none" x="0px" y="0px" width="16px" height="16px" viewBox="0 0 16 16">
<defs>
<g id="Layer0_0_FILL">
<path fill="#666666" fill-opacity="0" stroke="none" d="
M 0 0
L 0 16 16 16 16 0 0 0 Z"/>
</g>

<g id="Layer0_1_FILL">
<path fill="#000000" stroke="none" d="
M 2.5 0
L 2.5 16 13.55 16 13.55 0 2.5 0
M 12.05 1.8
L 12.05 4.85 4.1 4.85 4.1 1.8 12.05 1.8
M 11.95 8.3
L 10.45 8.3 10.45 6.8 11.95 6.8 11.95 8.3
M 11.95 9.8
L 11.95 11.25 10.45 11.25 10.45 9.8 11.95 9.8
M 4.05 8.3
L 4.05 6.8 5.55 6.8 5.55 8.3 4.05 8.3
M 4.05 11.25
L 4.05 9.8 5.55 9.8 5.55 11.25 4.05 11.25
M 8.75 6.8
L 8.75 8.3 7.3 8.3 7.3 6.8 8.75 6.8
M 7.3 11.25
L 7.3 9.8 8.75 9.8 8.75 11.25 7.3 11.25
M 7.3 14.3
L 7.3 12.8 8.75 12.8 8.75 14.3 7.3 14.3
M 5.55 14.3
L 4.05 14.3 4.05 12.8 5.55 12.8 5.55 14.3
M 11.95 14.3
L 10.45 14.3 10.45 12.8 11.95 12.8 11.95 14.3 Z"/>
</g>
</defs>

<g transform="matrix( 1, 0, 0, 1, 0,0) ">
<use xlink:href="#Layer0_0_FILL"/>
</g>

<g transform="matrix( 1, 0, 0, 1, 0,0) ">
<use xlink:href="#Layer0_1_FILL"/>
</g>
</svg>
