<?xml version="1.0" encoding="utf-8"?>
<!-- Generator: Adobe Illustrator 19.2.1, SVG Export Plug-In . SVG Version: 6.00 Build 0)  -->
<svg version="1.1" id="Layer_1" xmlns="http://www.w3.org/2000/svg" xmlns:xlink="http://www.w3.org/1999/xlink" x="0px" y="0px"
	 viewBox="0 0 16 16" style="enable-background:new 0 0 16 16;" xml:space="preserve">
<path d="M16,0.9c-0.1-0.2-0.3-0.3-0.4-0.3h-15C0.3,0.6,0.1,0.7,0,0.9C0,1.1,0,1.3,0.1,1.4l5.8,7v6.5c0,0.2,0.1,0.3,0.2,0.4
	c0.1,0,0.2,0.1,0.3,0.1c0.1,0,0.1,0,0.2-0.1l3.2-1.6c0.2-0.1,0.3-0.2,0.3-0.4l0-4.9l5.8-7C16,1.3,16,1.1,16,0.9z M9.3,7.9
	C9.2,8,9.1,8.1,9.1,8.3l0,4.7l-2.3,1.1V8.3c0-0.1,0-0.2-0.1-0.3L1.5,1.6h13L9.3,7.9z"/>
</svg>
