<?xml version="1.0" encoding="utf-8"?>
<!-- Generator: Adobe Illustrator 19.2.1, SVG Export Plug-In . SVG Version: 6.00 Build 0)  -->
<svg version="1.1" id="Layer_1" xmlns="http://www.w3.org/2000/svg" xmlns:xlink="http://www.w3.org/1999/xlink" x="0px" y="0px"
	 viewBox="0 0 20 20" style="enable-background:new 0 0 20 20;" xml:space="preserve">
<style type="text/css">
	.st0{fill:#FFFFFF;}
</style>
<path class="st0" d="M1.7,4.9l1.5,1.9C3.1,7,3.1,7.2,3,7.4L0.6,7.7C0.2,7.8,0,8.1,0,8.4v3.2c0,0.3,0.2,0.6,0.6,0.6L3,12.6
	c0.1,0.2,0.2,0.4,0.2,0.6l-1.5,1.9c-0.2,0.3-0.2,0.6,0.1,0.8l2.3,2.3c0.2,0.2,0.6,0.3,0.8,0.1l1.9-1.5C7,16.9,7.2,16.9,7.4,17
	l0.3,2.4c0,0.3,0.3,0.6,0.6,0.6h3.2c0.3,0,0.6-0.2,0.6-0.6l0.3-2.4c0.2-0.1,0.4-0.2,0.6-0.2l1.9,1.5c0.3,0.2,0.6,0.2,0.8-0.1
	l2.3-2.3c0.2-0.2,0.3-0.6,0.1-0.8l-1.5-1.9c0.1-0.2,0.2-0.4,0.2-0.6l2.4-0.3c0.3,0,0.6-0.3,0.6-0.6V8.4c0-0.3-0.2-0.6-0.6-0.6
	L17,7.4c-0.1-0.2-0.2-0.4-0.2-0.6l1.5-1.9c0.2-0.3,0.2-0.6-0.1-0.8l-2.3-2.3c-0.2-0.2-0.6-0.3-0.8-0.1l-1.9,1.5
	C13,3.1,12.8,3.1,12.6,3l-0.3-2.4c0-0.3-0.3-0.6-0.6-0.6H8.4C8.1,0,7.8,0.2,7.7,0.6L7.4,3C7.2,3.1,7,3.1,6.8,3.2L4.9,1.7
	C4.7,1.5,4.3,1.6,4.1,1.8L1.8,4.1C1.6,4.3,1.5,4.7,1.7,4.9z M4.6,3.1l1.8,1.4c0.2,0.2,0.5,0.2,0.7,0.1c0.4-0.2,0.7-0.4,1.1-0.5
	C8.5,4,8.6,3.8,8.7,3.5l0.3-2.3h2.1l0.3,2.3c0,0.3,0.2,0.5,0.5,0.5c0.4,0.1,0.8,0.3,1.1,0.5c0.2,0.1,0.5,0.1,0.7-0.1l1.8-1.4
	l1.5,1.5l-1.4,1.8c-0.2,0.2-0.2,0.5-0.1,0.7c0.2,0.4,0.4,0.7,0.5,1.1c0.1,0.2,0.3,0.4,0.5,0.4l2.3,0.3v2.1l-2.3,0.3
	c-0.3,0-0.5,0.2-0.5,0.5c-0.1,0.4-0.3,0.8-0.5,1.1c-0.1,0.2-0.1,0.5,0.1,0.7l1.4,1.8l-1.5,1.5l-1.8-1.4c-0.2-0.2-0.5-0.2-0.7-0.1
	c-0.4,0.2-0.7,0.4-1.1,0.5c-0.2,0.1-0.4,0.3-0.5,0.5l-0.3,2.3H8.9l-0.3-2.3c0-0.3-0.2-0.5-0.5-0.5c-0.4-0.1-0.8-0.3-1.1-0.5
	c-0.2-0.1-0.5-0.1-0.7,0.1l-1.8,1.4l-1.5-1.5l1.4-1.8c0.2-0.2,0.2-0.5,0.1-0.7c-0.2-0.4-0.4-0.7-0.5-1.1c-0.1-0.2-0.3-0.4-0.5-0.4
	l-2.3-0.3V8.9l2.3-0.3c0.3,0,0.5-0.2,0.5-0.4c0.1-0.4,0.3-0.8,0.5-1.1c0.1-0.2,0.1-0.5-0.1-0.7L3.1,4.6L4.6,3.1z"/>
</svg>
