<svg id="Layer_2" data-name="Layer 2" xmlns="http://www.w3.org/2000/svg" viewBox="0 0 16 16"><defs><style>.cls-1{fill:#666;fill-opacity:0;}</style></defs><title>stream</title><path d="M1.44,3.92l1.2,1.52c-.08.16-.08.32-.16.48L.56,6.16a.58.58,0,0,0-.48.56V9.28a.46.46,0,0,0,.48.48l1.92.32a1.14,1.14,0,0,1,.16.48l-1.2,1.52a.42.42,0,0,0,.08.64l1.84,1.84a.5.5,0,0,0,.64.08l1.52-1.2c.16.08.32.08.48.16l.24,1.92a.52.52,0,0,0,.48.48H9.28a.46.46,0,0,0,.48-.48L10,13.6a1.14,1.14,0,0,1,.48-.16L12,14.64a.42.42,0,0,0,.64-.08l1.84-1.84a.5.5,0,0,0,.08-.64l-1.2-1.52a1.14,1.14,0,0,0,.16-.48l1.92-.24a.52.52,0,0,0,.48-.48V6.72a.46.46,0,0,0-.48-.48l-1.76-.32a1.14,1.14,0,0,1-.16-.48l1.2-1.52a.42.42,0,0,0-.08-.64L12.8,1.44a.5.5,0,0,0-.64-.08l-1.52,1.2c-.16-.08-.32-.08-.48-.16L9.92.48A.52.52,0,0,0,9.44,0H6.8a.58.58,0,0,0-.56.48L6,2.4c-.16.08-.32.08-.48.16L4,1.36a.5.5,0,0,0-.64.08L1.52,3.28A.5.5,0,0,0,1.44,3.92ZM3.76,2.48,5.2,3.6a.49.49,0,0,0,.56.08,4.29,4.29,0,0,1,.88-.4C6.88,3.2,7,3,7,2.8L7.28,1H9L9.2,2.8a.38.38,0,0,0,.4.4,3,3,0,0,1,.88.4A.49.49,0,0,0,11,3.52L12.48,2.4l1.2,1.2L12.56,5a.49.49,0,0,0-.08.56,4.29,4.29,0,0,1,.4.88.53.53,0,0,0,.4.32L15.12,7V8.72L13.28,9a.38.38,0,0,0-.4.4,3,3,0,0,1-.4.88.49.49,0,0,0,.08.56l1.12,1.44-1.2,1.2L11,12.32a.49.49,0,0,0-.56-.08,4.29,4.29,0,0,1-.88.4,1,1,0,0,0-.4.4L9,14.88H7.2L7,13a.38.38,0,0,0-.4-.4,3,3,0,0,1-.88-.4.49.49,0,0,0-.56.08L3.68,13.44l-1.2-1.2L3.6,10.8a.49.49,0,0,0,.08-.56,4.29,4.29,0,0,1-.4-.88A.53.53,0,0,0,2.88,9L1,8.8V7.12l1.84-.24a.37.37,0,0,0,.4-.32,3,3,0,0,1,.4-.88.49.49,0,0,0-.08-.56l-1-1.44Z" transform="translate(0 0)"/><g id="Layer_1-2" data-name="Layer 1-2"><g id="Layer0_0_FILL" data-name="Layer0 0 FILL"><path class="cls-1" d="M0,0V16H16V0Z" transform="translate(0 0)"/></g></g></svg>