
<svg xmlns="http://www.w3.org/2000/svg" version="1.1" xmlns:xlink="http://www.w3.org/1999/xlink" preserveAspectRatio="none" x="0px" y="0px" width="20px" height="20px" viewBox="0 0 20 20">
<defs>
<g id="Layer0_0_FILL">
<path fill="#666666" fill-opacity="0" stroke="none" d="
M 20 0
L 0 0 0 20 20 20 20 0 Z"/>
</g>

<g id="Layer0_1_FILL">
<path fill="#000000" stroke="none" d="
M 20 5.7
Q 20 4.15 18.45 4.15
L 1.55 4.15
Q 0 4.15 0 5.7
L 0 11.5
Q 0 13.05 1.55 13.05
L 4.65 13.05 4.65 11.4 2.75 11.4
Q 1.5 11.4 1.5 10.4
L 1.5 6.75
Q 1.5 5.75 2.75 5.75
L 17.2 5.75
Q 18.45 5.75 18.45 6.75
L 18.45 10.4
Q 18.45 11.4 17.2 11.4
L 14.1 11.4 14.1 9.2 10.7 12.3 14.1 15.45 14.1 13.05 18.45 13.05
Q 20 13.05 20 11.5
L 20 5.7 Z"/>
</g>

<g id="Layer0_1_MEMBER_0_MEMBER_0_FILL">
<path fill="#000000" stroke="none" d="
M 10.75 12.1
Q 10.75 10.55 9.7 9.45 8.55 8.35 7.05 8.35 5.5 8.35 4.4 9.45 3.3 10.55 3.3 12.1 3.3 13.65 4.4 14.75 5.5 15.85 7.05 15.85 8.55 15.85 9.7 14.75 10.75 13.65 10.75 12.1 Z"/>
</g>

<g id="Layer0_1_MEMBER_0_MEMBER_1_FILL">
<path fill="#FFFFFF" stroke="none" d="
M 15.35 19.5
L 10.05 19.5 10.05 24.75 15.35 24.75 15.35 19.5 Z"/>
</g>
</defs>

<g transform="matrix( 1, 0, 0, 1, 0,0) ">
<use xlink:href="#Layer0_0_FILL"/>
</g>

<g transform="matrix( 1, 0, 0, 1, 0,0) ">
<use xlink:href="#Layer0_1_FILL"/>
</g>

<g transform="matrix( 1, 0, 0, 1, 0,0) ">
<use xlink:href="#Layer0_1_MEMBER_0_MEMBER_0_FILL"/>
</g>

<g transform="matrix( 0.5578765869140625, 0, 0, 0.5584716796875, -0.05,-0.25) ">
<use xlink:href="#Layer0_1_MEMBER_0_MEMBER_1_FILL"/>
</g>
</svg>
