
<svg xmlns="http://www.w3.org/2000/svg" version="1.1" xmlns:xlink="http://www.w3.org/1999/xlink" preserveAspectRatio="none" x="0px" y="0px" width="20px" height="20px" viewBox="0 0 20 20">
<defs>
<g id="Layer0_0_FILL">
<path fill="#666666" fill-opacity="0" stroke="none" d="
M 20 0
L 0 0 0 20 20 20 20 0 Z"/>
</g>

<g id="Layer0_1_FILL">
<path fill="#000000" stroke="none" d="
M 20 5.7
Q 20 4.2 18.5 4.2
L 1.55 4.2
Q 0 4.2 0 5.7
L 0 11.5
Q 0 13.05 1.55 13.05
L 4.65 13.05 4.65 11.45 2.75 11.45
Q 1.55 11.45 1.55 10.4
L 1.55 6.75
Q 1.55 5.8 2.75 5.8
L 17.25 5.8
Q 18.5 5.8 18.5 6.75
L 18.5 10.4
Q 18.5 11.45 17.25 11.45
L 14.1 11.45 14.1 9.2 10.7 12.3 14.1 15.45 14.1 13.05 18.5 13.05
Q 20 13.05 20 11.5
L 20 5.7 Z"/>
</g>

<g id="Layer0_1_MEMBER_0_MEMBER_0_FILL">
<path fill="#000000" stroke="none" d="
M 9.55 14.75
Q 10.65 13.65 10.65 12.1 10.65 10.55 9.55 9.45 8.45 8.35 6.9 8.35 5.35 8.35 4.25 9.45 3.15 10.55 3.15 12.1 3.15 13.65 4.25 14.75 5.35 15.85 6.9 15.85 8.45 15.85 9.55 14.75 Z"/>
</g>

<g id="Layer0_1_MEMBER_0_MEMBER_1_FILL">
<path fill="#FFFFFF" stroke="none" d="
M 10.1 18.65
L 10.1 25.85 14.75 22.25 10.1 18.65 Z"/>
</g>
</defs>

<g transform="matrix( 1, 0, 0, 1, 0,0) ">
<use xlink:href="#Layer0_0_FILL"/>
</g>

<g transform="matrix( 1, 0, 0, 1, 0,0) ">
<use xlink:href="#Layer0_1_FILL"/>
</g>

<g transform="matrix( 1, 0, 0, 1, 0,0) ">
<use xlink:href="#Layer0_1_MEMBER_0_MEMBER_0_FILL"/>
</g>

<g transform="matrix( 0.557098388671875, 0, 0, 0.55609130859375, 0,-0.2) ">
<use xlink:href="#Layer0_1_MEMBER_0_MEMBER_1_FILL"/>
</g>
</svg>
