
<svg xmlns="http://www.w3.org/2000/svg" version="1.1" xmlns:xlink="http://www.w3.org/1999/xlink" preserveAspectRatio="none" x="0px" y="0px" width="20px" height="20px" viewBox="0 0 20 20">
<defs>
<g id="loop_0_Layer0_0_FILL">
<path fill="#FF0000" fill-opacity="0" stroke="none" d="
M 36 0
L 0 0 0 36 36 36 36 0 Z"/>
</g>

<g id="loop_0_Layer0_0_MEMBER_0_FILL">
<path fill="#000000" stroke="none" d="
M 29.45 9.25
Q 32.4 9.25 32.4 11.6
L 32.4 20.25
Q 32.4 22.65 29.45 22.65
L 22.15 22.65 22.15 17.35 14.05 24.65 22.15 32.1 22.15 26.45 32.4 26.45
Q 36 26.45 36 22.75
L 36 9.15
Q 36 5.55 32.4 5.55
L 3.8 5.55
Q 0.1 5.55 0.1 9.15
L 0.1 22.75
Q 0.1 26.45 3.8 26.45
L 11.1 26.45 11.1 22.65 6.6 22.65
Q 3.7 22.65 3.7 20.25
L 3.7 11.6
Q 3.7 9.25 6.6 9.25
L 29.45 9.25 Z"/>
</g>
</defs>

<g transform="matrix( 0.5555572509765625, 0, 0, 0.5555572509765625, 0,0) ">
<g transform="matrix( 1, 0, 0, 1, 0,0) ">
<use xlink:href="#loop_0_Layer0_0_FILL"/>
</g>

<g transform="matrix( 1, 0, 0, 1, 0,0) ">
<use xlink:href="#loop_0_Layer0_0_MEMBER_0_FILL"/>
</g>
</g>
</svg>
