
<svg xmlns="http://www.w3.org/2000/svg" version="1.1" xmlns:xlink="http://www.w3.org/1999/xlink" preserveAspectRatio="none" x="0px" y="0px" width="18px" height="18px" viewBox="0 0 18 18">
<defs>
<g id="Layer0_0_FILL">
<path fill="#000000" stroke="none" d="
M 26.8 15.7
Q 26.65 14.25 25.35 13.4 24.35 12.8 22.55 12.4
L 21.3 12.4
Q 20.8 12.6 20.1 12.6 19.8 12.6 18.6 12.6 17.8 12.6 17.3 12.65 16.5 12.85 16.15 13.15 14.75 12.6 13.45 12.6 12.05 12.6 11.05 13.15 10.1 13.8 9.55 14.9 9.05 16.1 9.2 17.8 9.2 18.75 9.55 19.95 9.85 21.45 10.3 22.7 11.5 25.9 13 26 13.55 26.05 14.1 25.6 14.65 26.05 15.6 26.2 16.5 26.4 17.3 26 17.35 28.05 17.65 28.95 18.05 30.4 19.3 30.65
L 20.05 30.65
Q 21.8 30.45 22.55 28.95 23 27.95 23.2 25.5 26 25.5 26.85 23.85
L 26.85 23.5
Q 26.65 22.8 26 22.8 25.55 22.7 24.6 22.9 25.1 21.95 25.35 21.4 25.85 20.4 26.1 19.65 26.95 17.25 26.8 15.7
M 21 12.95
Q 21.8 12.85 22.3 12.85 23.55 12.95 24.7 13.6 26 14.25 26.2 15.3 26.45 16.95 25.55 19.45 25 21.15 23.75 23.15 23.95 23.35 24.35 23.35 24.6 23.35 25.1 23.3 25.55 23.15 25.7 23.15 26.1 23.3 26.3 23.5 26.2 24.3 25.1 24.7 24.05 25.15 22.8 24.85 22.75 25.3 22.65 26.05 22.55 26.55 22.55 27.3 22.3 28.85 21.85 29.4 21.3 30.05 20.25 30.2 19.3 30.35 18.6 29.85 17.9 29.4 17.8 27.9 17.8 27.4 17.8 26.55 17.65 25.5 17.65 25.25 17.55 25.45 17 25.5 16.5 25.7 15.95 25.7 15.3 25.7 14.95 25.5 14.45 25.3 14.45 24.95 14.45 24.7 14.75 24.5 14.95 24.4 15.4 24.3 15.95 24.25 16.15 24.1 16.45 23.9 16.5 23.65 16.45 23.55 16.1 23.5 15.7 23.5 15.6 23.3 15.3 23.5 15 23.85 14.95 23.9 14.45 24.5 14.2 24.95 14 25.15 13.65 25.45 13.25 25.45 12.3 25.5 11.55 24.1 11.05 23.35 10.55 21.45 9.8 18.9 9.65 17.25 9.55 14.75 10.85 13.7 11.6 13.15 13.25 13.15 14.75 13.05 16.1 13.6 16.65 13.15 17.65 13.15 17.9 13.15 18.6 13.15 19.3 13.15 19.6 13.15 20.05 13.15 21 12.95 Z"/>

<path fill="#FFFFFF" stroke="none" d="
M 22.3 12.85
Q 21.8 12.85 21 12.95 20.05 13.15 19.6 13.15 19.3 13.15 18.6 13.15 17.9 13.15 17.65 13.15 16.65 13.15 16.1 13.6 14.75 13.05 13.25 13.15 11.6 13.15 10.85 13.7 9.55 14.75 9.65 17.25 9.8 18.9 10.55 21.45 11.05 23.35 11.55 24.1 12.3 25.5 13.25 25.45 13.65 25.45 14 25.15 14.2 24.95 14.45 24.5 14.95 23.9 15 23.85 15.3 23.5 15.6 23.3 15.7 23.5 16.1 23.5 16.45 23.55 16.5 23.65 16.45 23.9 16.15 24.1 15.95 24.25 15.4 24.3 14.95 24.4 14.75 24.5 14.45 24.7 14.45 24.95 14.45 25.3 14.95 25.5 15.3 25.7 15.95 25.7 16.5 25.7 17 25.5 17.55 25.45 17.65 25.25 17.65 25.5 17.8 26.55 17.8 27.4 17.8 27.9 17.9 29.4 18.6 29.85 19.3 30.35 20.25 30.2 21.3 30.05 21.85 29.4 22.3 28.85 22.55 27.3 22.55 26.55 22.65 26.05 22.75 25.3 22.8 24.85 24.05 25.15 25.1 24.7 26.2 24.3 26.3 23.5 26.1 23.3 25.7 23.15 25.55 23.15 25.1 23.3 24.6 23.35 24.35 23.35 23.95 23.35 23.75 23.15 25 21.15 25.55 19.45 26.45 16.95 26.2 15.3 26 14.25 24.7 13.6 23.55 12.95 22.3 12.85
M 21.55 14.15
L 20.8 13.55
Q 22.25 13.15 23.9 13.8 25.55 14.45 25.7 15.55 25.9 17.05 25 19.5 24.35 21.2 23.5 22.4 23.75 21.95 23.75 21.05 23.7 20.4 23.7 19.95 23.55 19.35 23.7 18.9 23.7 18.7 23.75 18 23.9 17.5 23.75 17.35 23.7 16.1 22.55 15 22.2 14.6 21.55 14.15
M 20.25 14
Q 21.3 14.45 22.05 15.3 22.95 16.1 23.2 16.95 20.55 16.95 21.1 19.45 21.45 20.4 22 21.45 22.45 22.35 23 23.1 22.45 23.5 22.25 24.8 22.05 25.5 22 27.15 21.8 28.65 21.3 29.15 20.65 29.9 19.3 29.7 18.55 29.4 18.3 28.4 18.2 27.75 18.3 26.25 18.3 24.8 18.2 24.25 17.9 23.3 17.1 23.1 17.65 22.25 17.85 20.85 18.1 19.15 17.8 18.15 17.45 17.35 16.65 17.25 15.75 17.05 14.85 17.5 15 16.3 15.2 15.75 15.5 14.9 15.95 14.45 16.8 13.6 18.05 13.55 19.05 13.4 20.25 14
M 22.3 20.95
Q 21.85 20.1 21.7 19.45 21.25 17.5 23.2 17.7 23 18.45 23.15 19.75 23.2 21.4 23.15 21.95 22.75 21.6 22.3 20.95
M 23.2 23.75
Q 23.4 23.65 23.9 23.75 24.6 23.9 24.7 23.9 25.25 23.9 25.55 23.75 25.15 24.25 24.45 24.4 23.55 24.5 22.8 24.3 22.95 23.85 23.2 23.75
M 15.9 17.8
Q 16.5 17.7 17.1 17.95 17.65 18.95 17.35 20.6 17.2 21.8 16.5 23.1 15.15 23 14.85 21.4 14.75 20.85 14.75 19.9 14.85 18.9 14.85 18.25 15.2 17.95 15.9 17.8
M 14.3 17.7
Q 14.2 18 14.3 18.45 14.4 19.15 14.4 19.35 14.4 19.65 14.3 20.4 14.3 21.05 14.3 21.4 14.4 22.55 15 23 14.45 23.75 14.2 24.05 13.75 24.6 13.25 24.95 12.05 24.3 11.05 21.7 10.3 19.35 10.1 17.2 10.1 14.8 11.6 14.05 13.05 13.2 15.5 14 15.3 14.45 14.75 15.55 14.4 16.6 14.3 17.7
M 17.1 23.65
Q 17.65 23.9 17.65 24.3 17.55 24.6 17.1 24.85 16.7 25.15 16.15 25.25 15.5 25.25 15.15 25.05 16.15 24.6 16.35 24.6 16.9 24.25 17.1 23.65
M 17.1 18.2
Q 17 18 16.65 18 16.35 17.95 16.1 18.15 16.1 18.25 16.15 18.45 16.35 18.55 16.5 18.55 16.7 18.7 16.9 18.55 17.1 18.45 17.1 18.2
M 22.75 17.95
Q 22.55 17.7 22.25 17.8 22 17.95 21.85 18.15 21.85 18.25 22.05 18.45 22.25 18.45 22.45 18.45 22.95 18.25 22.75 17.95 Z"/>

<path fill="#336691" stroke="none" d="
M 17.65 24.3
Q 17.65 23.9 17.1 23.65 16.9 24.25 16.35 24.6 16.15 24.6 15.15 25.05 15.5 25.25 16.15 25.25 16.7 25.15 17.1 24.85 17.55 24.6 17.65 24.3
M 14.3 18.45
Q 14.2 18 14.3 17.7 14.4 16.6 14.75 15.55 15.3 14.45 15.5 14 13.05 13.2 11.6 14.05 10.1 14.8 10.1 17.2 10.3 19.35 11.05 21.7 12.05 24.3 13.25 24.95 13.75 24.6 14.2 24.05 14.45 23.75 15 23 14.4 22.55 14.3 21.4 14.3 21.05 14.3 20.4 14.4 19.65 14.4 19.35 14.4 19.15 14.3 18.45
M 17.1 17.95
Q 16.5 17.7 15.9 17.8 15.2 17.95 14.85 18.25 14.85 18.9 14.75 19.9 14.75 20.85 14.85 21.4 15.15 23 16.5 23.1 17.2 21.8 17.35 20.6 17.65 18.95 17.1 17.95
M 16.65 18
Q 17 18 17.1 18.2 17.1 18.45 16.9 18.55 16.7 18.7 16.5 18.55 16.35 18.55 16.15 18.45 16.1 18.25 16.1 18.15 16.35 17.95 16.65 18
M 23.9 23.75
Q 23.4 23.65 23.2 23.75 22.95 23.85 22.8 24.3 23.55 24.5 24.45 24.4 25.15 24.25 25.55 23.75 25.25 23.9 24.7 23.9 24.6 23.9 23.9 23.75
M 21.7 19.45
Q 21.85 20.1 22.3 20.95 22.75 21.6 23.15 21.95 23.2 21.4 23.15 19.75 23 18.45 23.2 17.7 21.25 17.5 21.7 19.45
M 22.25 17.8
Q 22.55 17.7 22.75 17.95 22.95 18.25 22.45 18.45 22.25 18.45 22.05 18.45 21.85 18.25 21.85 18.15 22 17.95 22.25 17.8
M 22.05 15.3
Q 21.3 14.45 20.25 14 19.05 13.4 18.05 13.55 16.8 13.6 15.95 14.45 15.5 14.9 15.2 15.75 15 16.3 14.85 17.5 15.75 17.05 16.65 17.25 17.45 17.35 17.8 18.15 18.1 19.15 17.85 20.85 17.65 22.25 17.1 23.1 17.9 23.3 18.2 24.25 18.3 24.8 18.3 26.25 18.2 27.75 18.3 28.4 18.55 29.4 19.3 29.7 20.65 29.9 21.3 29.15 21.8 28.65 22 27.15 22.05 25.5 22.25 24.8 22.45 23.5 23 23.1 22.45 22.35 22 21.45 21.45 20.4 21.1 19.45 20.55 16.95 23.2 16.95 22.95 16.1 22.05 15.3
M 20.8 13.55
L 21.55 14.15
Q 22.2 14.6 22.55 15 23.7 16.1 23.75 17.35 23.9 17.5 23.75 18 23.7 18.7 23.7 18.9 23.55 19.35 23.7 19.95 23.7 20.4 23.75 21.05 23.75 21.95 23.5 22.4 24.35 21.2 25 19.5 25.9 17.05 25.7 15.55 25.55 14.45 23.9 13.8 22.25 13.15 20.8 13.55 Z"/>
</g>
</defs>

<g transform="matrix( 0.985870361328125, 0, 0, 0.986297607421875, -8.7,-12.25) ">
<use xlink:href="#Layer0_0_FILL"/>
</g>
</svg>
