
<svg xmlns="http://www.w3.org/2000/svg" version="1.1" xmlns:xlink="http://www.w3.org/1999/xlink" preserveAspectRatio="none" x="0px" y="0px" width="16px" height="16px" viewBox="0 0 16 16">
<defs>
<g id="Layer0_0_MEMBER_0_FILL">
<path fill="#000000" stroke="none" d="
M 3.95 12.05
L 0 12.05 0 16 3.95 16 3.95 12.05
M 6.05 4
L 10 4 10 0 6.05 0 6.05 4
M 16 12
L 11.95 12 11.95 16 16 16 16 12 Z"/>
</g>

<g id="Layer0_0_MEMBER_0_MEMBER_0_FILL">
<path fill="#000000" stroke="none" d="
M 10.45 8.3
L 10.45 7.3 9.45 7.3 9.45 6.25 8.5 6.25 8.5 5.3 7.5 5.3 7.5 6.25 6.55 6.25 6.55 7.3 5.55 7.3 5.55 8.3 7.5 8.3 7.5 13.35 4.15 13.35 4.15 14.35 11.8 14.35 11.8 13.35 8.5 13.35 8.5 8.3 10.45 8.3 Z"/>
</g>
</defs>

<g transform="matrix( 1, 0, 0, 1, 0,0) ">
<use xlink:href="#Layer0_0_MEMBER_0_FILL"/>
</g>

<g transform="matrix( 1, 0, 0, 1, 0,0) ">
<use xlink:href="#Layer0_0_MEMBER_0_MEMBER_0_FILL"/>
</g>
</svg>
