<?xml version="1.0" encoding="utf-8"?>
<!-- Generator: Adobe Illustrator 19.2.1, SVG Export Plug-In . SVG Version: 6.00 Build 0)  -->
<svg version="1.1" id="Layer_1" xmlns="http://www.w3.org/2000/svg" xmlns:xlink="http://www.w3.org/1999/xlink" x="0px" y="0px"
	 viewBox="0 0 16 16" style="enable-background:new 0 0 16 16;" xml:space="preserve">
<path id="XMLID_7_" d="M16,0.9C16,0.4,15.6,0,15.1,0H0.9C0.4,0,0,0.4,0,0.9v14.2C0,15.6,0.4,16,0.9,16h14.2c0.5,0,0.9-0.4,0.9-0.9
	V0.9z M15.1,3.6H0.9V0.9h14.2V3.6z M15.1,15.1H0.9V4.4h14.2V15.1z"/>
<g>
	<path d="M5.1,11.1c-0.2,0.1-0.6,0.2-1.1,0.2c-1.1,0-2-0.7-2-2c0-1.3,0.9-2.1,2.1-2.1c0.5,0,0.8,0.1,1,0.2L5,7.7
		C4.8,7.6,4.5,7.5,4.2,7.5c-0.9,0-1.6,0.6-1.6,1.7c0,1,0.6,1.6,1.6,1.6c0.3,0,0.6-0.1,0.9-0.2L5.1,11.1z"/>
	<path d="M9.2,9.4c0-0.6-0.1-1.2-0.1-1.7h0C9,8.1,8.8,8.6,8.6,9.2l-0.7,2H7.5L6.8,9.2C6.6,8.7,6.5,8.1,6.4,7.7h0
		c0,0.5,0,1.2-0.1,1.8l-0.1,1.7H5.7l0.3-4h0.7l0.7,2c0.2,0.5,0.3,0.9,0.4,1.4h0C7.8,10.1,8,9.6,8.2,9.1l0.7-2h0.7l0.3,4H9.3L9.2,9.4
		z"/>
	<path d="M10.6,7.2c0.3,0,0.7-0.1,1.1-0.1c0.8,0,1.3,0.2,1.6,0.5c0.4,0.3,0.6,0.8,0.6,1.5c0,0.7-0.2,1.2-0.6,1.6
		c-0.4,0.4-1,0.6-1.8,0.6c-0.4,0-0.7,0-0.9,0V7.2z M11.1,10.8c0.1,0,0.3,0,0.5,0c1.1,0,1.7-0.6,1.7-1.7c0-1-0.5-1.6-1.6-1.6
		c-0.3,0-0.5,0-0.6,0.1V10.8z"/>
</g>
</svg>
