<svg xmlns="http://www.w3.org/2000/svg" viewBox="0 0 14 14"><defs><style>.cls-1{fill:#fff;}.cls-2{fill:none;stroke:#232323;stroke-miterlimit:10;stroke-width:2px;}.cls-3{fill:#369;fill-opacity:0;}</style></defs><title>unlinkall</title><g id="Layer_2" data-name="Layer 2"><g id="Layer_1-2" data-name="Layer 1"><rect class="cls-1" width="6" height="1"/><polygon points="6 0 0 0 0 1 6 1 6 0"/><rect class="cls-1" y="2" width="2" height="1"/><polygon points="2 2 0 2 0 3 2 3 2 2"/><rect class="cls-1" y="4" width="2" height="1"/><polygon points="2 4 0 4 0 5 2 5 2 4"/><polygon points="1 6 0 6 0 7 1 7 1 6"/><rect class="cls-1" x="8" y="13" width="6" height="1"/><polygon points="8 14 14 14 14 13 8 13 8 14"/><rect class="cls-1" x="12" y="11" width="2" height="1"/><polygon points="12 12 14 12 14 11 12 11 12 12"/><rect class="cls-1" x="12" y="9" width="2" height="1"/><polygon points="12 10 14 10 14 9 12 9 12 10"/><polygon points="13 8 14 8 14 7 13 7 13 8"/><path class="cls-2" d="M7.76,10l-2.5,2.5a1.77,1.77,0,0,1-2.5,0L1.52,11.23a1.77,1.77,0,0,1,0-2.5L4,6.24"/><path class="cls-2" d="M6.24,4l2.5-2.5a1.77,1.77,0,0,1,2.5,0l1.25,1.25a1.77,1.77,0,0,1,0,2.5L10,7.76"/><line class="cls-2" x1="3.66" y1="3.66" x2="10.34" y2="10.34"/><g id="Layer0_0_FILL" data-name="Layer0 0 FILL"><path class="cls-3" d="M14,14V0H0V14Z"/></g></g></g></svg>